<?xml version="1.0" encoding="UTF-8" standalone="no"?>
<!DOCTYPE svg PUBLIC "-//W3C//DTD SVG 1.1//EN" "http://www.w3.org/Graphics/SVG/1.1/DTD/svg11.dtd">
<svg version="1.1" xmlns="http://www.w3.org/2000/svg" xmlns:xlink="http://www.w3.org/1999/xlink" preserveAspectRatio="xMidYMid meet" viewBox="0 0 640 640" width="640" height="640"><defs><path d="" id="a7oKQD6Tq"></path><path d="M382.64 292.68C382.64 347.07 352.51 391.23 315.4 391.23C278.29 391.23 248.16 347.07 248.16 292.68C248.16 238.29 278.29 194.14 315.4 194.14C352.51 194.14 382.64 238.29 382.64 292.68Z" id="dTa6VDM1m"></path><path d="M315.4 188.97L315.4 460.23L315.4 188.97Z" id="eOT78pGHs"></path><path d="M328.63 238.72C320.24 252.69 311.58 252.69 302.63 238.72" id="bg17t7pOU"></path><path d="M340.63 263.49C324.5 290.37 307.84 290.37 290.63 263.49" id="b1yX1uwrb"></path><path d="M347.63 292.68C326.99 327.08 305.65 327.08 283.63 292.68" id="b13ZhHw5k7"></path><path d="M357.65 324.6C330.39 363.85 302.23 363.85 273.16 324.6" id="ahBUghhed"></path><path d="" id="d97AHkOBm"></path><path d="M315.17 188.97C317.41 205.54 303.24 235.29 272.65 278.24C267.87 284.94 262.7 291.97 257.13 299.31" id="g5iTvwg1s"></path><path d="M315.63 188.97C313.04 208.12 332.39 244.9 373.68 299.31" id="bwjAUKNH"></path><path d="" id="a8im546Rv"></path><path d="M315.4 389.5C225.75 357.85 242.64 318.59 257.36 299.31" id="b4IGsRjAvr"></path><path d="M315.63 389.5C405.29 357.85 388.4 318.59 373.68 299.31" id="b1jYTjXPXm"></path></defs><g><g><g><g><use xlink:href="#a7oKQD6Tq" opacity="1" fill-opacity="0" stroke="#000000" stroke-width="1" stroke-opacity="1"></use></g></g><g><use xlink:href="#dTa6VDM1m" opacity="1" fill="#44ad33" fill-opacity="1"></use></g><g><g><use xlink:href="#eOT78pGHs" opacity="1" fill-opacity="0" stroke="#000000" stroke-width="1" stroke-opacity="1"></use></g></g><g><g><use xlink:href="#bg17t7pOU" opacity="1" fill-opacity="0" stroke="#000000" stroke-width="1" stroke-opacity="1"></use></g></g><g><g><use xlink:href="#b1yX1uwrb" opacity="1" fill-opacity="0" stroke="#000000" stroke-width="1" stroke-opacity="1"></use></g></g><g><g><use xlink:href="#b13ZhHw5k7" opacity="1" fill-opacity="0" stroke="#000000" stroke-width="1" stroke-opacity="1"></use></g></g><g><g><use xlink:href="#ahBUghhed" opacity="1" fill-opacity="0" stroke="#000000" stroke-width="1" stroke-opacity="1"></use></g></g><g><g><use xlink:href="#d97AHkOBm" opacity="1" fill-opacity="0" stroke="#000000" stroke-width="1" stroke-opacity="1"></use></g></g><g><g><use xlink:href="#g5iTvwg1s" opacity="1" fill-opacity="0" stroke="#000000" stroke-width="1" stroke-opacity="1"></use></g></g><g><g><use xlink:href="#bwjAUKNH" opacity="1" fill-opacity="0" stroke="#000000" stroke-width="1" stroke-opacity="1"></use></g></g><g><g><use xlink:href="#a8im546Rv" opacity="1" fill-opacity="0" stroke="#000000" stroke-width="1" stroke-opacity="1"></use></g></g><g><g><use xlink:href="#b4IGsRjAvr" opacity="1" fill-opacity="0" stroke="#000000" stroke-width="1" stroke-opacity="1"></use></g></g><g><g><use xlink:href="#b1jYTjXPXm" opacity="1" fill-opacity="0" stroke="#000000" stroke-width="1" stroke-opacity="1"></use></g></g></g></g></svg>