<?xml version="1.0" encoding="UTF-8" standalone="no"?>
<!DOCTYPE svg PUBLIC "-//W3C//DTD SVG 1.1//EN" "http://www.w3.org/Graphics/SVG/1.1/DTD/svg11.dtd">
<svg version="1.1" xmlns="http://www.w3.org/2000/svg" xmlns:xlink="http://www.w3.org/1999/xlink" preserveAspectRatio="xMidYMid meet" viewBox="0 0 640 640" width="640" height="640"><defs><path d="M307.11 316.5L307.11 316.5L306.86 317.43L394.45 360.63L395.25 359.72L396.32 358.62L397.43 357.55L398.57 356.53L399.76 355.55L400.98 354.62L402.24 353.73L403.53 352.89L404.86 352.1L406.22 351.36L407.61 350.68L409.03 350.04L410.48 349.46L411.96 348.94L413.46 348.47L414.99 348.06L416.54 347.71L418.11 347.42L419.71 347.19L421.32 347.03L422.95 346.93L424.6 346.9L426.25 346.93L427.88 347.03L429.49 347.19L431.08 347.42L432.65 347.71L434.21 348.06L435.73 348.47L437.24 348.94L438.71 349.46L440.16 350.04L441.58 350.68L442.97 351.36L444.33 352.1L445.66 352.89L446.96 353.73L448.21 354.62L449.44 355.55L450.62 356.53L451.77 357.55L452.88 358.62L453.94 359.72L454.96 360.87L455.94 362.06L456.88 363.28L457.76 364.54L458.6 365.83L459.39 367.16L460.13 368.52L460.82 369.91L461.45 371.33L462.03 372.78L462.56 374.26L463.02 375.76L463.43 377.29L463.78 378.84L464.07 380.41L464.3 382.01L464.46 383.62L464.56 385.25L464.6 386.9L464.56 388.54L464.46 390.18L464.3 391.79L464.07 393.38L463.78 394.95L463.43 396.5L463.02 398.03L462.56 399.53L462.03 401.01L461.45 402.46L460.82 403.88L460.13 405.27L459.39 406.63L458.6 407.96L457.76 409.25L456.88 410.51L455.94 411.74L454.96 412.92L453.94 414.07L452.88 415.18L451.77 416.24L450.62 417.26L449.44 418.24L448.21 419.17L446.96 420.06L445.66 420.9L444.33 421.69L442.97 422.43L441.58 423.12L440.16 423.75L438.71 424.33L437.24 424.86L435.73 425.32L434.21 425.73L432.65 426.08L431.08 426.37L429.49 426.6L427.88 426.76L426.25 426.86L424.6 426.9L422.95 426.86L421.32 426.76L419.71 426.6L418.11 426.37L416.54 426.08L414.99 425.73L413.46 425.32L411.96 424.86L410.48 424.33L409.03 423.75L407.61 423.12L406.22 422.43L404.86 421.69L403.53 420.9L402.24 420.06L400.98 419.17L399.76 418.24L398.57 417.26L397.43 416.24L396.32 415.18L395.25 414.07L394.23 412.92L393.25 411.74L392.32 410.51L391.43 409.25L390.59 407.96L389.8 406.63L389.07 405.27L388.38 403.88L387.74 402.46L387.16 401.01L386.64 399.53L386.17 398.03L385.76 396.5L385.41 394.95L385.12 393.38L384.89 391.79L384.73 390.18L384.63 388.54L384.6 386.9L384.63 385.25L384.73 383.62L384.89 382.01L385.12 380.41L385.41 378.84L385.76 377.29L386.17 375.76L386.51 374.66L299.58 331.79L298.64 332.92L298.64 332.92L297.62 334.07L296.55 335.18L295.45 336.24L294.3 337.26L293.12 338.24L291.89 339.17L290.63 340.06L289.34 340.9L288.01 341.69L286.65 342.43L285.26 343.12L283.84 343.75L282.39 344.33L280.91 344.86L279.41 345.32L277.88 345.73L276.33 346.08L274.76 346.37L273.17 346.6L271.55 346.76L269.92 346.86L268.28 346.9L266.63 346.86L265 346.76L263.38 346.6L261.79 346.37L260.22 346.08L258.67 345.73L257.14 345.32L255.64 344.86L254.16 344.33L252.71 343.75L251.29 343.12L249.9 342.43L248.54 341.69L247.21 340.9L245.92 340.06L244.66 339.17L243.44 338.24L242.25 337.26L241.1 336.24L240 335.18L238.93 334.07L237.91 332.92L236.93 331.74L236 330.51L235.11 329.25L234.27 327.96L233.48 326.63L232.74 325.27L232.06 323.88L231.42 322.46L230.84 321.01L230.32 319.53L229.85 318.03L229.69 317.43L229.44 316.5L229.09 314.95L228.8 313.38L228.57 311.79L228.41 310.18L228.31 308.54L228.28 306.9L228.31 305.25L228.41 303.62L228.57 302.01L228.8 300.41L229.09 298.84L229.44 297.29L229.69 296.36L229.85 295.76L230.32 294.26L230.84 292.78L231.42 291.33L232.06 289.91L232.74 288.52L233.48 287.16L234.27 285.83L235.11 284.54L236 283.28L236.93 282.06L236.97 282.01L237.91 280.87L238.93 279.72L240 278.62L241.1 277.55L242.25 276.53L243.44 275.55L244.66 274.62L245.92 273.73L245.92 273.73L247.21 272.89L248.54 272.1L249.9 271.36L251.29 270.68L252.71 270.04L254.16 269.46L255.64 268.94L257.14 268.47L258.67 268.06L260.22 267.71L261.79 267.42L263.38 267.19L265 267.03L266.63 266.93L268.28 266.9L269.92 266.93L271.55 267.03L273.17 267.19L274.76 267.42L276.33 267.71L277.88 268.06L279.41 268.47L280.91 268.94L282.39 269.46L283.84 270.04L285.26 270.68L286.65 271.36L288.01 272.1L289.34 272.89L290.63 273.73L290.63 273.73L291.89 274.62L293.12 275.55L294.3 276.53L295.45 277.55L296.55 278.62L297.62 279.72L298.64 280.87L298.64 280.87L299.58 282.01L386.51 239.14L386.17 238.03L385.76 236.5L385.41 234.95L385.12 233.38L384.89 231.79L384.73 230.18L384.63 228.54L384.6 226.9L384.63 225.25L384.73 223.62L384.89 222.01L385.12 220.41L385.41 218.84L385.76 217.29L386.17 215.76L386.64 214.26L387.16 212.78L387.74 211.33L388.38 209.91L389.07 208.52L389.8 207.16L390.59 205.83L391.43 204.54L392.32 203.28L393.25 202.06L394.23 200.87L395.25 199.72L396.32 198.62L397.43 197.55L398.57 196.53L399.76 195.55L400.98 194.62L402.24 193.73L403.53 192.89L404.86 192.1L406.22 191.36L407.61 190.68L409.03 190.04L410.48 189.46L411.96 188.94L413.46 188.47L414.99 188.06L416.54 187.71L418.11 187.42L419.71 187.19L421.32 187.03L422.95 186.93L424.6 186.9L426.25 186.93L427.88 187.03L429.49 187.19L431.08 187.42L432.65 187.71L434.21 188.06L435.73 188.47L437.24 188.94L438.71 189.46L440.16 190.04L441.58 190.68L442.97 191.36L444.33 192.1L445.66 192.89L446.96 193.73L448.21 194.62L449.44 195.55L450.62 196.53L451.77 197.55L452.88 198.62L453.94 199.72L454.96 200.87L455.94 202.06L456.88 203.28L457.76 204.54L458.6 205.83L459.39 207.16L460.13 208.52L460.82 209.91L461.45 211.33L462.03 212.78L462.56 214.26L463.02 215.76L463.43 217.29L463.78 218.84L464.07 220.41L464.3 222.01L464.46 223.62L464.56 225.25L464.6 226.9L464.56 228.54L464.46 230.18L464.3 231.79L464.07 233.38L463.78 234.95L463.43 236.5L463.02 238.03L462.56 239.53L462.03 241.01L461.45 242.46L460.82 243.88L460.13 245.27L459.39 246.63L458.6 247.96L457.76 249.25L456.88 250.51L455.94 251.74L454.96 252.92L453.94 254.07L452.88 255.18L451.77 256.24L450.62 257.26L449.44 258.24L448.21 259.17L446.96 260.06L445.66 260.9L444.33 261.69L442.97 262.43L441.58 263.12L440.16 263.75L438.71 264.33L437.24 264.86L435.73 265.32L434.21 265.73L432.65 266.08L431.08 266.37L429.49 266.6L427.88 266.76L426.25 266.86L424.6 266.9L422.95 266.86L421.32 266.76L419.71 266.6L418.11 266.37L416.54 266.08L414.99 265.73L413.46 265.32L411.96 264.86L410.48 264.33L409.03 263.75L407.61 263.12L406.22 262.43L404.86 261.69L403.53 260.9L402.24 260.06L400.98 259.17L399.76 258.24L398.57 257.26L397.43 256.24L396.32 255.18L395.25 254.07L394.45 253.17L306.86 296.36L307.11 297.29L307.46 298.84L307.75 300.41L307.98 302.01L308.14 303.62L308.24 305.25L308.28 306.9L308.24 308.54L308.14 310.18L307.98 311.79L307.75 313.38L307.46 314.95L307.11 316.5Z" id="c3RFBtM0M8"></path></defs><g><g><g><use xlink:href="#c3RFBtM0M8" opacity="1" fill="#44ad33" fill-opacity="1"></use></g></g></g></svg>